<svg width="58" height="16" viewBox="0 0 58 16" fill="none" xmlns="http://www.w3.org/2000/svg">
<g clip-path="url(#clip0_220_15193)">
<path d="M19.3353 14.299V3.86877C19.3353 3.21372 19.4423 2.67838 19.6563 2.26265C19.8828 1.84697 20.2101 1.54465 20.6381 1.35569C21.066 1.16673 21.5821 1.07227 22.1863 1.07227H23.168V2.58388H22.4695C22.0289 2.58388 21.708 2.67838 21.5066 2.8673C21.3178 3.04366 21.2234 3.36488 21.2234 3.83097V14.299H19.3353ZM17.957 6.34404V4.92689H23.4135V6.34404H17.957ZM24.4519 14.299V1.07227H26.34V14.299H24.4519Z" fill="#18181B"/>
<path d="M32.7414 14.5257C31.8224 14.5257 31.0106 14.3242 30.3057 13.9211C29.6008 13.5054 29.047 12.9322 28.6442 12.2016C28.2414 11.471 28.04 10.6144 28.04 9.63185C28.04 8.64929 28.2351 7.79272 28.6253 7.06211C29.0281 6.31887 29.5819 5.73942 30.2868 5.32374C31.0043 4.90802 31.8287 4.7002 32.7601 4.7002C33.6915 4.7002 34.4908 4.90802 35.158 5.32374C35.8252 5.72682 36.3413 6.26221 36.7062 6.92981C37.0839 7.59746 37.2727 8.34066 37.2727 9.15947C37.2727 9.28543 37.2727 9.42403 37.2727 9.57519C37.2727 9.72635 37.2599 9.88381 37.235 10.0476H29.4183V8.72488H35.3846C35.3469 7.91868 35.0826 7.29514 34.5915 6.85425C34.1007 6.40077 33.484 6.17401 32.7414 6.17401C32.2378 6.17401 31.7658 6.28741 31.3253 6.51413C30.8973 6.74089 30.5512 7.08101 30.2868 7.5345C30.0225 7.98798 29.8903 8.56112 29.8903 9.25397V9.78301C29.8903 10.4759 30.0225 11.0616 30.2868 11.5403C30.5512 12.0064 30.8973 12.3591 31.3253 12.5984C31.7658 12.8378 32.2316 12.9574 32.7224 12.9574C33.3266 12.9574 33.8236 12.8252 34.2142 12.5606C34.6167 12.2835 34.9124 11.9119 35.1013 11.4458H37.0085C36.8321 12.0379 36.5488 12.5669 36.1586 13.033C35.7685 13.4865 35.2839 13.8518 34.7049 14.1289C34.1384 14.3935 33.484 14.5257 32.7414 14.5257Z" fill="#18181B"/>
<path d="M41.9204 14.5257C41.1779 14.5257 40.555 14.3998 40.0514 14.1478C39.5606 13.8833 39.1953 13.5306 38.9563 13.0897C38.717 12.6488 38.5977 12.1701 38.5977 11.6536C38.5977 11.0364 38.755 10.5074 39.0694 10.0664C39.397 9.62555 39.8625 9.28543 40.4668 9.04611C41.0834 8.80675 41.8198 8.68709 42.6759 8.68709H45.1492C45.1492 8.12024 45.061 7.65416 44.8846 7.28883C44.721 6.91095 44.4758 6.63379 44.1482 6.45747C43.821 6.26851 43.4247 6.17401 42.9587 6.17401C42.3798 6.17401 41.8765 6.31887 41.4483 6.60863C41.0329 6.88575 40.7815 7.32663 40.6933 7.93128H38.8052C38.8805 7.23847 39.1009 6.65899 39.4661 6.19291C39.8435 5.71422 40.3346 5.34894 40.9389 5.09698C41.5427 4.83246 42.2162 4.7002 42.9587 4.7002C43.8525 4.7002 44.6017 4.85766 45.2055 5.17258C45.8226 5.4875 46.2819 5.93468 46.5839 6.51413C46.8862 7.08101 47.037 7.75492 47.037 8.53592V14.299H45.4702L45.2813 12.7307H45.2055C45.0295 13.033 44.8216 13.2976 44.5826 13.5243C44.3437 13.7384 44.0856 13.9211 43.8086 14.0723C43.5443 14.2234 43.2482 14.3368 42.9211 14.4124C42.6063 14.4879 42.2729 14.5257 41.9204 14.5257ZM42.3735 12.9952C42.8142 12.9952 43.1981 12.9133 43.5253 12.7496C43.8653 12.5858 44.1486 12.3654 44.3751 12.0882C44.6141 11.7985 44.7901 11.4773 44.9036 11.1246C45.0295 10.7719 45.0987 10.4066 45.1111 10.0287H42.8647C42.3106 10.0287 41.8637 10.0916 41.5241 10.2176C41.1969 10.3436 40.9575 10.5199 40.8064 10.7467C40.6556 10.9734 40.5798 11.238 40.5798 11.5403C40.5798 11.83 40.6494 12.0882 40.7877 12.315C40.9389 12.5292 41.1464 12.6992 41.4106 12.8252C41.6877 12.9385 42.0087 12.9952 42.3735 12.9952Z" fill="#18181B"/>
<path d="M54.9049 14.299L50.5057 9.14054L54.4518 4.92689H56.7363L52.0539 9.85859V8.46034L57.3029 14.299H54.9049ZM48.9199 14.299V1.07227H50.8077V14.299H48.9199Z" fill="#18181B"/>
<path d="M2.2251 3.35003V1.07227H12.8949V3.35003H2.2251Z" fill="#4F46E5"/>
<path d="M0.413574 8.81682V6.53906H10.3759V8.81682H0.413574Z" fill="#4F46E5"/>
<path d="M2.2251 14.2831V12.0054H4.48923V14.2831H2.2251Z" fill="#4F46E5"/>
</g>
<defs>
<clipPath id="clip0_220_15193">
<rect width="56.8889" height="16" fill="white" transform="translate(0.5)"/>
</clipPath>
</defs>
</svg>
