<svg width="146" height="40" fill="none" xmlns="http://www.w3.org/2000/svg">
  <path d="M37.88 28.858V14.644c0-.892.146-1.622.437-2.188a2.755 2.755 0 0 1 1.34-1.236c.583-.258 1.287-.386 2.11-.386h1.34v2.06h-.953c-.6 0-1.039.128-1.313.386-.258.24-.386.678-.386 1.313v14.265H37.88ZM36 18.018v-1.932h7.441v1.931H36Zm8.858 10.84V10.834h2.575v18.024h-2.575ZM56.162 29.167c-1.253 0-2.36-.275-3.322-.824A6.069 6.069 0 0 1 50.575 26c-.55-.996-.824-2.163-.824-3.502 0-1.34.266-2.506.798-3.502a6.023 6.023 0 0 1 2.266-2.369c.978-.566 2.103-.85 3.373-.85s2.36.284 3.27.85a5.74 5.74 0 0 1 2.111 2.189c.515.91.773 1.922.773 3.038v.567c0 .206-.017.42-.052.643H51.63v-1.802h8.137c-.052-1.099-.412-1.948-1.082-2.55-.669-.617-1.51-.926-2.523-.926-.687 0-1.33.154-1.931.463-.584.31-1.056.773-1.416 1.39-.36.619-.541 1.4-.541 2.344v.72c0 .945.18 1.743.54 2.396.361.635.833 1.115 1.417 1.441.6.327 1.236.49 1.905.49.824 0 1.502-.18 2.034-.541.55-.378.953-.884 1.21-1.52h2.601a5.995 5.995 0 0 1-1.158 2.164 5.984 5.984 0 0 1-1.983 1.493c-.772.36-1.665.54-2.678.54ZM68.68 29.167c-1.012 0-1.862-.172-2.548-.515-.67-.36-1.168-.841-1.494-1.442a4.036 4.036 0 0 1-.49-1.957c0-.841.216-1.562.645-2.163.446-.6 1.081-1.064 1.905-1.39.841-.327 1.846-.49 3.013-.49h3.373c0-.772-.12-1.407-.36-1.905-.224-.515-.559-.893-1.005-1.133-.446-.258-.987-.386-1.622-.386-.79 0-1.476.197-2.06.592-.566.378-.91.978-1.03 1.802h-2.575c.103-.944.404-1.733.901-2.369.515-.652 1.185-1.15 2.009-1.493.824-.36 1.742-.54 2.755-.54 1.219 0 2.24.214 3.064.643.841.43 1.468 1.039 1.88 1.828.412.773.618 1.691.618 2.755v7.854h-2.137l-.258-2.137h-.103a4.83 4.83 0 0 1-.85 1.081c-.326.292-.678.54-1.055.747-.36.206-.764.36-1.21.463-.43.103-.885.155-1.365.155Zm.619-2.086c.6 0 1.124-.111 1.57-.335.464-.223.85-.523 1.16-.9.325-.396.566-.833.72-1.314.172-.48.266-.979.283-1.493h-3.064c-.755 0-1.365.085-1.828.257-.446.172-.772.412-.978.721-.206.309-.31.67-.31 1.082 0 .394.095.746.284 1.055.206.292.49.524.85.695.377.155.815.232 1.313.232ZM86.389 28.858l-6-7.03 5.382-5.742h3.115l-6.385 6.72v-1.905l7.158 7.957h-3.27Zm-8.163 0V10.834h2.575v18.024h-2.575ZM12.22 13.937v-3.104h14.552v3.104H12.22ZM9.75 21.387v-3.104h13.587v3.104H9.75ZM12.22 28.836v-3.104h3.088v3.104H12.22Z" fill="#fff"/>
</svg>
