<svg width="28" height="24" viewBox="0 0 28 24" fill="none" xmlns="http://www.w3.org/2000/svg">
<path d="M16.2727 0C15.0765 0 13.6783 0.944197 13.4674 5.16071C13.645 5.15625 13.8203 5.14286 14.0001 5.14286C14.1998 5.14286 14.4062 5.15402 14.6038 5.16071C14.7391 2.62723 15.3384 1.14286 16.2727 1.14286C16.6722 1.14286 16.8986 1.36161 17.3202 1.82143C17.8129 2.35938 18.4566 3.05804 19.7172 3.32143C19.6972 3.17188 19.6816 3.01116 19.6816 2.85714C19.6816 2.61607 19.7061 2.38839 19.7527 2.16071C18.9715 1.94643 18.5587 1.4933 18.1547 1.05357C17.7042 0.5625 17.1871 0 16.2727 0ZM23.0906 0.571429C21.8366 0.571429 20.818 1.59821 20.818 2.85714C20.818 4.11607 21.8366 5.14286 23.0906 5.14286C24.3445 5.14286 25.3632 4.11607 25.3632 2.85714C25.3632 1.59821 24.3445 0.571429 23.0906 0.571429ZM14.0001 6.28571C7.10676 6.28571 1.50067 9.81697 1.50067 14.8571C1.50067 19.8973 7.10676 24 14.0001 24C20.8934 24 26.4995 19.8973 26.4995 14.8571C26.4995 9.81697 20.8934 6.28571 14.0001 6.28571ZM4.05737 6.82143C3.22733 6.82143 2.43945 7.16295 1.83801 7.76786C0.859271 8.75223 0.657309 10.1674 1.21659 11.3393C2.07548 9.66741 3.55357 8.24107 5.46 7.17857C5.02723 6.95759 4.54784 6.82143 4.05737 6.82143ZM23.9428 6.82143C23.4523 6.82143 22.973 6.95759 22.5402 7.17857C24.4466 8.24107 25.9247 9.66741 26.7836 11.3393C27.3429 10.1674 27.1409 8.75223 26.1622 7.76786C25.5607 7.16295 24.7729 6.82143 23.9428 6.82143ZM9.45484 11.4286C10.3959 11.4286 11.1593 12.1964 11.1593 13.1429C11.1593 14.0893 10.3959 14.8571 9.45484 14.8571C8.51384 14.8571 7.75038 14.0893 7.75038 13.1429C7.75038 12.1964 8.51384 11.4286 9.45484 11.4286ZM18.5453 11.4286C19.4863 11.4286 20.2498 12.1964 20.2498 13.1429C20.2498 14.0893 19.4863 14.8571 18.5453 14.8571C17.6043 14.8571 16.8409 14.0893 16.8409 13.1429C16.8409 12.1964 17.6043 11.4286 18.5453 11.4286ZM8.9222 17.7143C9.06424 17.7388 9.20406 17.8192 9.29505 17.9464C9.35497 18.0313 10.6866 19.8214 14.0001 19.8214C17.358 19.8214 18.6918 17.9821 18.7051 17.9643C18.8849 17.7076 19.2467 17.6384 19.5041 17.8214C19.7593 18.0022 19.8081 18.3482 19.6284 18.6071C19.5618 18.7031 17.9417 20.9643 14.0001 20.9643C10.0563 20.9643 8.43838 18.7031 8.3718 18.6071C8.19203 18.3482 8.23864 18.0022 8.49608 17.8214C8.6248 17.7299 8.78016 17.6897 8.9222 17.7143Z" fill="#FF4500"/>
</svg>
