<svg width="25" height="24" viewBox="0 0 25 24" fill="none" xmlns="http://www.w3.org/2000/svg">
<path d="M4.09082 0C1.88168 0 0.0908203 1.79086 0.0908203 4V20C0.0908203 22.2091 1.88168 24 4.09082 24H20.0908C22.3 24 24.0908 22.2091 24.0908 20V4C24.0908 1.79086 22.3 0 20.0908 0H4.09082ZM5.28279 5.14286H9.8185L13.0395 9.71987L16.948 5.14286H18.3765L13.6846 10.6362L19.4703 18.8571H14.9357L11.198 13.5469L6.66225 18.8571H5.23368L10.5529 12.6306L5.28279 5.14286ZM7.47028 6.28571L15.5317 17.7143H17.2828L9.2214 6.28571H7.47028Z" fill="#FF4500"/>
</svg>
